<svg id="Layer_1" data-name="Layer 1" xmlns="http://www.w3.org/2000/svg" viewBox="0 0 150 150"><defs><style>.cls-1{fill:#009f4f;}.cls-2{fill:#ffde00;}.cls-3{fill:#223471;}.cls-4{fill:#fff;}</style></defs><circle class="cls-1" cx="75" cy="75" r="75"/><polygon class="cls-2" points="6.66 74.87 74.84 30.81 143.34 74.76 74.98 119.19 6.66 74.87"/><ellipse class="cls-3" cx="75.06" cy="74.74" rx="28.88" ry="29.24"/><path class="cls-4" d="M72.38,63.24a66.17,66.17,0,0,1,31.24,15.9,31,31,0,0,1-1.07,4.63A65.06,65.06,0,0,0,74,68.33a70,70,0,0,0-26.88-1,44.47,44.47,0,0,1,1.54-4.49S58.27,61.07,72.38,63.24Z"/><polygon class="cls-4" points="51.45 68.28 51.73 69.15 52.63 69.15 51.9 69.68 52.17 70.55 51.45 70.01 50.72 70.55 51 69.68 50.27 69.15 51.17 69.15 51.45 68.28"/><polygon class="cls-4" points="63.99 74.91 64.23 75.67 65.02 75.67 64.38 76.13 64.63 76.89 63.99 76.42 63.36 76.89 63.6 76.13 62.97 75.67 63.75 75.67 63.99 74.91"/><polygon class="cls-4" points="56.86 79.31 57.01 79.77 57.49 79.77 57.1 80.06 57.25 80.52 56.86 80.23 56.48 80.52 56.62 80.06 56.24 79.77 56.71 79.77 56.86 79.31"/><polygon class="cls-4" points="54 80.51 54.31 81.47 55.31 81.47 54.5 82.07 54.81 83.03 54 82.43 53.19 83.03 53.5 82.07 52.69 81.47 53.69 81.47 54 80.51"/><polygon class="cls-4" points="50.42 83.46 50.65 84.17 51.38 84.17 50.79 84.61 51.02 85.33 50.42 84.89 49.82 85.33 50.05 84.61 49.45 84.17 50.19 84.17 50.42 83.46"/><polygon class="cls-4" points="60.02 83.74 60.24 84.45 60.98 84.45 60.38 84.89 60.61 85.6 60.02 85.16 59.42 85.6 59.65 84.89 59.05 84.45 59.79 84.45 60.02 83.74"/><polygon class="cls-4" points="59.14 86.67 59.37 87.39 60.11 87.39 59.51 87.83 59.74 88.54 59.14 88.1 58.54 88.54 58.77 87.83 58.17 87.39 58.91 87.39 59.14 86.67"/><polygon class="cls-4" points="63.41 89.19 63.66 89.98 64.49 89.98 63.82 90.48 64.08 91.27 63.41 90.78 62.74 91.27 63 90.48 62.33 89.98 63.15 89.98 63.41 89.19"/><polygon class="cls-4" points="74.97 86.83 75.22 87.63 76.05 87.63 75.38 88.12 75.63 88.92 74.97 88.42 74.3 88.92 74.55 88.12 73.88 87.63 74.71 87.63 74.97 86.83"/><polygon class="cls-4" points="78.36 81.08 78.59 81.82 79.36 81.82 78.74 82.27 78.98 83.01 78.36 82.56 77.74 83.01 77.98 82.27 77.36 81.82 78.12 81.82 78.36 81.08"/><polygon class="cls-4" points="74.97 78.42 75.2 79.16 75.97 79.16 75.35 79.61 75.58 80.35 74.97 79.89 74.34 80.35 74.58 79.61 73.96 79.16 74.73 79.16 74.97 78.42"/><polygon class="cls-4" points="72.05 81.1 72.26 81.75 72.94 81.75 72.39 82.16 72.6 82.81 72.05 82.4 71.5 82.81 71.71 82.16 71.16 81.75 71.84 81.75 72.05 81.1"/><polygon class="cls-4" points="73.5 83.44 73.65 83.93 74.16 83.93 73.75 84.23 73.9 84.71 73.5 84.41 73.09 84.71 73.25 84.23 72.84 83.93 73.34 83.93 73.5 83.44"/><polygon class="cls-4" points="82.85 72.68 83 73.17 83.51 73.17 83.1 73.47 83.25 73.95 82.85 73.65 82.44 73.95 82.59 73.47 82.19 73.17 82.69 73.17 82.85 72.68"/><polygon class="cls-4" points="83.95 64.38 84.24 65.28 85.17 65.28 84.42 65.83 84.71 66.73 83.95 66.18 83.2 66.73 83.49 65.83 82.73 65.28 83.67 65.28 83.95 64.38"/><polygon class="cls-4" points="95.2 83.8 95.49 84.7 96.42 84.7 95.67 85.25 95.96 86.15 95.2 85.59 94.45 86.15 94.74 85.25 93.98 84.7 94.92 84.7 95.2 83.8"/><polygon class="cls-4" points="94.59 88.86 94.83 89.61 95.61 89.61 94.98 90.07 95.22 90.82 94.59 90.36 93.96 90.82 94.2 90.07 93.57 89.61 94.35 89.61 94.59 88.86"/><polygon class="cls-4" points="96.39 86.62 96.63 87.37 97.41 87.37 96.77 87.83 97.02 88.58 96.39 88.12 95.75 88.58 96 87.83 95.36 87.37 96.14 87.37 96.39 86.62"/><polygon class="cls-4" points="99.21 84.42 99.39 84.99 99.99 84.99 99.5 85.34 99.69 85.92 99.21 85.56 98.72 85.92 98.91 85.34 98.43 84.99 99.02 84.99 99.21 84.42"/><polygon class="cls-4" points="92.3 90.63 92.49 91.2 93.08 91.2 92.6 91.56 92.79 92.13 92.3 91.78 91.82 92.13 92.01 91.56 91.53 91.2 92.12 91.2 92.3 90.63"/><polygon class="cls-4" points="89.44 92.8 89.66 93.45 90.34 93.45 89.79 93.86 90 94.52 89.44 94.11 88.89 94.52 89.1 93.86 88.55 93.45 89.23 93.45 89.44 92.8"/><polygon class="cls-4" points="89.25 90.09 89.43 90.63 90 90.63 89.54 90.97 89.71 91.52 89.25 91.18 88.8 91.52 88.97 90.97 88.51 90.63 89.08 90.63 89.25 90.09"/><polygon class="cls-4" points="86.13 91.13 86.3 91.68 86.87 91.68 86.41 92.01 86.58 92.56 86.13 92.22 85.67 92.56 85.84 92.01 85.39 91.68 85.95 91.68 86.13 91.13"/><polygon class="cls-4" points="81.36 90.36 81.53 90.9 82.1 90.9 81.64 91.24 81.82 91.79 81.36 91.45 80.9 91.79 81.08 91.24 80.62 90.9 81.19 90.9 81.36 90.36"/><polygon class="cls-4" points="89.43 96 89.6 96.55 90.17 96.55 89.71 96.88 89.89 97.43 89.43 97.09 88.97 97.43 89.15 96.88 88.69 96.55 89.25 96.55 89.43 96"/><polygon class="cls-4" points="83.67 93.57 83.88 94.23 84.57 94.23 84.02 94.64 84.23 95.3 83.67 94.89 83.11 95.3 83.33 94.64 82.77 94.23 83.46 94.23 83.67 93.57"/><polygon class="cls-4" points="75.05 97.23 75.15 97.54 75.47 97.54 75.21 97.73 75.31 98.04 75.05 97.85 74.79 98.04 74.89 97.73 74.63 97.54 74.95 97.54 75.05 97.23"/><path class="cls-1" d="M51.21,64.58a1.14,1.14,0,0,1-1,1.45,1.32,1.32,0,0,1-1.51-1,1.13,1.13,0,0,1,1-1.47A1.28,1.28,0,0,1,51.21,64.58Zm-2.14.35a1,1,0,0,0,1.09.84.86.86,0,0,0,.67-1.13,1,1,0,0,0-1.1-.85A.84.84,0,0,0,49.07,64.93Z"/><path class="cls-1" d="M52.72,63.23a4,4,0,0,1,.7-.11,1.22,1.22,0,0,1,.84.13.63.63,0,0,1,.29.45.62.62,0,0,1-.44.66h0a.68.68,0,0,1,.47.46,4.31,4.31,0,0,0,.3.65l-.36,0a3.79,3.79,0,0,1-.26-.57.57.57,0,0,0-.63-.43l-.33,0c.05.36.11.71.16,1.06l-.35,0Zm.54,1.08.37,0c.38,0,.6-.23.56-.51s-.33-.43-.71-.4a1.42,1.42,0,0,0-.36.06C53.17,63.71,53.21,64,53.26,64.31Z"/><path class="cls-1" d="M56.25,63a5.53,5.53,0,0,1,.78-.08,1.77,1.77,0,0,1,1.17.28,1.08,1.08,0,0,1,.45.87,1.2,1.2,0,0,1-.34,1,1.75,1.75,0,0,1-1.18.37c-.25,0-.46,0-.64,0Zm.57,2.14h.36c.75,0,1.14-.4,1.1-1.06s-.44-.95-1.21-.92a2.16,2.16,0,0,0-.43,0Z"/><path class="cls-1" d="M61.8,64.26l-1.08,0c0,.29,0,.59,0,.88l1.18,0v.27l-1.53,0c0-.82,0-1.63-.07-2.45l1.54.05v.27l-1.16,0c0,.25,0,.51,0,.77l1.09,0Z"/><path class="cls-1" d="M65.94,64.65c0-.34,0-.75,0-1.05h0c-.11.27-.25.56-.41.88L65,65.61l-.26,0-.39-1.2a8.27,8.27,0,0,1-.28-1h0c0,.3-.06.71-.1,1.07s-.07.69-.11,1l-.33,0,.27-2.42.46,0c.15.4.29.81.43,1.22a7.21,7.21,0,0,1,.23.84h0c.09-.24.2-.5.34-.79s.38-.75.58-1.12l.46,0c0,.81,0,1.63,0,2.44l-.34,0C65.93,65.37,65.94,65,65.94,64.65Z"/><path class="cls-1" d="M71.62,65.47l-1.06-.21-.14.87,1.16.22c0,.09,0,.17,0,.26L70,66.32l.36-2.4,1.51.29,0,.26-1.14-.22L70.6,65l1.06.2C71.65,65.3,71.63,65.38,71.62,65.47Z"/><path class="cls-1" d="M75.75,65.14a4.41,4.41,0,0,1,.69.14,1.32,1.32,0,0,1,.71.41.65.65,0,0,1,.1.56.69.69,0,0,1-.35.44,1.27,1.27,0,0,1-.89,0,1.71,1.71,0,0,1-.27-.09l-.24.94-.34-.1C75.35,66.69,75.55,65.92,75.75,65.14Zm.06,1.23a1.18,1.18,0,0,0,.27.1c.42.12.72,0,.81-.31s-.12-.53-.51-.64a1.51,1.51,0,0,0-.34-.06C76,65.76,75.89,66.07,75.81,66.37Z"/><path class="cls-1" d="M79.1,66.14a3.63,3.63,0,0,1,.69.17,1.34,1.34,0,0,1,.71.45.57.57,0,0,1,0,.51.67.67,0,0,1-.7.41h0a.63.63,0,0,1,.22.6A3.75,3.75,0,0,0,80,69l-.34-.12a2.61,2.61,0,0,1,0-.6.52.52,0,0,0-.37-.63l-.32-.1-.33,1-.33-.11C78.61,67.65,78.86,66.9,79.1,66.14Zm0,1.16.35.12c.37.12.66,0,.75-.24s-.1-.51-.47-.63a1.25,1.25,0,0,0-.35-.09C79.29,66.74,79.2,67,79.1,67.3Z"/><path class="cls-1" d="M84.22,69.29a1.25,1.25,0,0,1-1.69.68,1.18,1.18,0,0,1-.69-1.59,1.24,1.24,0,0,1,1.69-.71A1.16,1.16,0,0,1,84.22,69.29Zm-2-.78a.9.9,0,0,0,.45,1.23.92.92,0,0,0,1.21-.59.89.89,0,0,0-.44-1.25A.92.92,0,0,0,82.2,68.51Z"/><path class="cls-1" d="M87.15,71.89a2.79,2.79,0,0,1-.81-.25,1.58,1.58,0,0,1-.78-.72,1.17,1.17,0,0,1,0-1,1.34,1.34,0,0,1,1.93-.47,1.72,1.72,0,0,1,.58.41l-.19.19a1.55,1.55,0,0,0-.52-.37,1,1,0,0,0-1.45.39.94.94,0,0,0,.52,1.33,1.26,1.26,0,0,0,.45.15l.34-.64-.51-.25.12-.22.82.4Z"/><path class="cls-1" d="M89.85,70.71a4.3,4.3,0,0,1,.64.29,1.25,1.25,0,0,1,.62.57.55.55,0,0,1,0,.51.69.69,0,0,1-.78.27h0a.57.57,0,0,1,.1.62,3.21,3.21,0,0,0-.16.67l-.32-.18a3.06,3.06,0,0,1,.14-.59.49.49,0,0,0-.24-.67l-.3-.16L89,73l-.31-.17Zm-.24,1.13.33.18c.33.18.64.15.79-.09s0-.52-.34-.71a2.4,2.4,0,0,0-.33-.15Z"/><path class="cls-1" d="M93.45,74.28c-.3-.2-.61-.39-.92-.58-.16.25-.32.49-.49.73l1,.63-.15.22c-.43-.28-.87-.55-1.3-.81.44-.68.89-1.36,1.34-2,.44.26.87.53,1.3.81l-.15.22-1-.62c-.15.21-.29.42-.43.64l.92.57Z"/><path class="cls-1" d="M94.48,75.87a1.28,1.28,0,0,0,.43.48c.3.21.58.2.73,0s.1-.37-.13-.69-.4-.69-.2-1,.71-.33,1.16,0a1.56,1.56,0,0,1,.45.46l-.25.15a1.25,1.25,0,0,0-.37-.41c-.32-.22-.56-.14-.66,0s-.06.37.18.69.36.7.13,1-.69.36-1.22,0a1.63,1.63,0,0,1-.48-.52Z"/><path class="cls-1" d="M97.12,77.76a1.4,1.4,0,0,0,.4.51c.29.22.57.22.73,0s.12-.36-.09-.69-.36-.72-.14-1,.72-.29,1.16,0a1.41,1.41,0,0,1,.42.49l-.25.13a1.24,1.24,0,0,0-.35-.43c-.31-.24-.55-.17-.66,0s-.09.37.13.7.33.72.08,1-.71.32-1.22-.07a1.68,1.68,0,0,1-.46-.54Z"/><path class="cls-1" d="M102.1,80.78a1.33,1.33,0,0,1-1.89,0,1.13,1.13,0,0,1-.08-1.71,1.32,1.32,0,0,1,1.9-.07A1.1,1.1,0,0,1,102.1,80.78Zm-1.67-1.42a.87.87,0,0,0,0,1.3,1,1,0,0,0,1.39-.13.86.86,0,0,0,0-1.31A1,1,0,0,0,100.43,79.36Z"/></svg>